<?xml version="1.0" encoding="UTF-8" standalone="no"?>
<!-- Created with Inkscape (http://www.inkscape.org/) -->

<svg
   width="60mm"
   height="246mm"
   viewBox="0 0 60 246"
   version="1.1"
   id="svg1"
   xml:space="preserve"
   inkscape:version="1.4 (86a8ad7, 2024-10-11)"
   sodipodi:docname="branch-logo-3.svg"
   inkscape:export-filename="branch-logo-1.png"
   inkscape:export-xdpi="96"
   inkscape:export-ydpi="96"
   xmlns:inkscape="http://www.inkscape.org/namespaces/inkscape"
   xmlns:sodipodi="http://sodipodi.sourceforge.net/DTD/sodipodi-0.dtd"
   xmlns="http://www.w3.org/2000/svg"
   xmlns:svg="http://www.w3.org/2000/svg"><sodipodi:namedview
     id="namedview1"
     pagecolor="#ffffff"
     bordercolor="#000000"
     borderopacity="0.25"
     inkscape:showpageshadow="2"
     inkscape:pageopacity="0.0"
     inkscape:pagecheckerboard="0"
     inkscape:deskcolor="#d1d1d1"
     inkscape:document-units="mm"
     showgrid="false"
     inkscape:zoom="1.0771772"
     inkscape:cx="261.79537"
     inkscape:cy="706.94034"
     inkscape:window-width="1920"
     inkscape:window-height="1057"
     inkscape:window-x="-8"
     inkscape:window-y="-8"
     inkscape:window-maximized="1"
     inkscape:current-layer="layer1" /><defs
     id="defs1"><inkscape:path-effect
       effect="simplify"
       id="path-effect14"
       is_visible="true"
       lpeversion="1.3"
       threshold="24.504195"
       steps="1"
       smooth_angles="360"
       helper_size="10"
       simplify_individual_paths="false"
       simplify_just_coalesce="false" /><inkscape:path-effect
       effect="simplify"
       id="path-effect13"
       is_visible="true"
       lpeversion="1.3"
       threshold="5"
       steps="1"
       smooth_angles="360"
       helper_size="30"
       simplify_individual_paths="false"
       simplify_just_coalesce="false" /><inkscape:path-effect
       effect="simplify"
       id="path-effect12"
       is_visible="true"
       lpeversion="1.3"
       threshold="5"
       steps="1"
       smooth_angles="0"
       helper_size="10"
       simplify_individual_paths="false"
       simplify_just_coalesce="false" /><rect
       x="444.68079"
       y="536.58771"
       width="51.987732"
       height="76.124893"
       id="rect5" /><rect
       x="474.38806"
       y="497.59689"
       width="57.55785"
       height="473.45972"
       id="rect3" /><inkscape:path-effect
       effect="simplify"
       id="path-effect3"
       is_visible="true"
       lpeversion="1.3"
       threshold="1.6876846"
       steps="15.14094"
       smooth_angles="360"
       helper_size="6.2416107"
       simplify_individual_paths="false"
       simplify_just_coalesce="false" /><inkscape:path-effect
       effect="simplify"
       id="path-effect1"
       is_visible="true"
       lpeversion="1.3"
       threshold="5"
       steps="1"
       smooth_angles="360"
       helper_size="10"
       simplify_individual_paths="false"
       simplify_just_coalesce="false" /><rect
       x="346.60257"
       y="471.32697"
       width="395.17944"
       height="210.06216"
       id="rect1" /></defs><g
     inkscape:label="Layer 1"
     inkscape:groupmode="layer"
     id="layer1"><path
       style="fill:#ff0000;fill-opacity:1;stroke:#ff0000;stroke-width:0;stroke-opacity:1"
       d=""
       id="path2"
       transform="scale(0.26458333)" /><path
       style="fill:#ff0000;fill-opacity:1;stroke:#e1e000;stroke-width:0;stroke-opacity:1"
       d="m 106.4209,254.45175 c -0.78454,-0.7936 -1.64455,-1.52548 -2.31275,-2.42228 -0.52092,-0.69912 -1.42345,-1.33026 -1.40747,-2.20085 0.0694,-3.7817 0.17438,-7.56291 0.20843,-11.34509 0.0447,-4.96273 0.002,-9.94226 -0.5951,-14.87656 -0.22171,-1.83163 -0.54588,-3.64946 -0.94767,-5.44917 -0.0969,-0.43389 -0.0748,-0.90875 -0.27293,-1.30603 -0.12976,-0.26021 -0.47157,-0.24984 -0.71959,-0.25276 -1.214873,-0.0143 -2.427234,0.10269 -3.643023,0.0649 -2.213645,-0.0688 -4.439029,-0.28924 -6.578959,-0.86721 -0.858924,-0.23198 -1.83104,-0.35569 -2.48988,-0.96635 -0.259821,-0.24082 0.359936,-0.24834 0.50175,-0.25702 1.515422,-0.0928 3.035013,-0.0736 4.552539,-0.0815 2.371078,-0.0124 4.747218,0.11679 7.113459,-0.0391 0.428984,-0.0283 0.892894,0.0348 1.285024,-0.15319 0.29147,-0.13975 0.17646,-0.50473 0.23334,-0.77147 0.0785,-0.36833 0.2811,-0.69041 0.36722,-1.05888 0.32377,-1.38522 0.47787,-2.80354 0.60772,-4.21792 0.17724,-1.93051 0.24082,-3.87245 0.13998,-5.80969 -0.1621,-3.11439 -0.55248,-6.21734 -1.15947,-9.27667 -0.2345,-1.1819 -0.56123,-2.34198 -0.90164,-3.49724 -0.36926,-1.25319 -0.713345,-2.51546 -1.192226,-3.73372 -0.218899,-0.55687 -0.516448,-1.0941 -0.624699,-1.68631 -0.08314,-0.45484 -0.287051,-0.88168 -0.496949,-1.29074 -0.218173,-0.4252 -0.650114,-0.6789 -1.113689,-0.78984 -1.331318,-0.3186 -2.568665,-0.9437 -3.72628,-1.65882 -1.454795,-0.89871 -2.884771,-1.90024 -3.989943,-3.21218 -0.608086,-0.72185 -1.266019,-1.40245 -1.844415,-2.14835 -1.565846,-2.01931 -3.053485,-4.09786 -4.545315,-6.17209 -0.596432,-0.82927 -1.131813,-1.70215 -1.747485,-2.51691 -1.00533,-1.33042 -2.138113,-2.56133 -3.330459,-3.72524 -0.591542,-0.57744 -1.22142,-1.11537 -1.90359,-1.58568 -0.2619,-0.18056 -0.784193,-0.22358 -0.785701,-0.54169 -0.0037,-0.78598 0.03893,-1.57339 -0.01682,-2.35797 -0.07053,-0.99261 -0.344034,-1.95417 -0.652379,-2.89757 -0.928074,-2.83948 -1.803262,-5.69563 -2.625999,-8.56722 -0.123384,-0.43065 -0.180024,-0.87456 -0.257315,-1.31777 -0.193868,-1.1117 -0.512102,-2.19764 -0.826705,-3.28001 -0.190429,-0.65515 -0.44718,-1.28699 -0.681837,-1.92757 -0.344123,-0.93939 -0.718661,-1.8739 -0.948427,-2.84838 -0.287876,-1.22095 -0.306767,-2.48375 -0.334565,-3.73124 -0.0666,-2.98906 -0.140752,-5.97913 -0.108149,-8.96878 0.01187,-1.0886 0.201301,-2.18022 0.100526,-3.26544 -0.01313,-0.1414 0.122993,-0.4462 0.186159,-0.16117 0.143019,0.64535 0.144681,1.31275 0.155443,1.97068 0.02767,1.69178 0.01572,3.38403 0.09579,5.07509 0.214164,4.52318 0.984565,9.01461 2.240996,13.36412 0.597211,2.06742 1.311373,4.09851 1.937634,6.15705 0.485422,1.5956 0.951272,3.19721 1.489832,4.77646 1.780492,5.22105 4.22935,10.23326 7.463099,14.71719 1.354573,1.87825 2.873954,3.63221 4.492401,5.28616 1.127984,1.15273 2.242491,2.33507 3.531567,3.30779 0.802865,0.60583 1.544812,1.28779 2.338575,1.90545 0.988447,0.76914 2.038872,1.47675 3.177998,1.99392 0.323276,0.14677 0.729629,0.61793 1.001627,0.38093 0.214738,-0.18711 0.158684,-0.5563 0.153274,-0.82089 -0.03258,-1.59346 -0.230058,-3.17846 -0.434441,-4.75715 -0.504108,-3.89383 -1.196697,-7.76008 -1.945684,-11.61373 -0.5851,-3.01044 -1.167758,-6.02104 -1.77258,-9.02793 -0.978978,-4.867 -1.726167,-9.78041 -2.267539,-14.71491 -0.247776,-2.25842 -0.413573,-4.52527 -0.499878,-6.79598 -0.03002,-0.7898 -0.27788,-3.13711 -0.09005,-2.36939 0.533319,2.17991 1.061393,4.36203 1.472062,6.56923 0.823301,4.42496 1.435272,8.88583 2.038243,13.34491 0.514031,3.80135 1.00731,7.60697 1.667326,11.38643 0.399755,2.28912 0.727791,4.60155 1.371968,6.83567 0.127153,0.44099 0.173245,0.93511 0.453579,1.30301 0.249812,0.32784 0.681038,0.53262 1.093299,0.41512 0.665641,-0.18972 1.205996,-0.65366 1.717493,-1.09816 0.61941,-0.53828 1.14443,-1.34845 1.95519,-1.50107 0.233,-0.0439 0.31516,-0.19237 0.53254,-0.39908 0.21383,-0.20334 0.55867,-0.13742 0.80819,-0.0465 0.40567,0.1478 0.79463,0.63318 0.59875,1.06204 -0.21956,0.48068 -0.74682,0.70455 -1.21571,0.87445 -0.81178,0.29416 -1.6695,0.36612 -2.501084,0.61197 -0.303555,0.0897 -0.514397,0.34247 -0.632811,0.62759 -0.36652,0.88254 -0.459321,1.84897 -0.509949,2.79475 -0.05227,0.97638 0.09833,1.9482 0.243101,2.91032 0.200061,1.32959 0.374466,2.66958 0.727421,3.96807 0.08815,0.32429 0.251232,0.61946 0.350852,0.94193 0.32511,1.05246 0.63306,2.11144 1.03023,3.14042 0.75426,1.95412 1.5167,3.90735 2.12094,5.91495 0.83899,2.78756 1.50319,5.6477 1.70952,8.55143 0.15616,2.19769 0.1925,4.40193 0.23434,6.60404 0.2074,10.91456 0.0769,21.83396 0.35225,32.74687 0.0522,2.07013 0.0278,4.15041 0.2835,6.20726 0.16066,1.29243 0.39198,2.57516 0.62462,3.85626 0.37042,2.0399 0.89135,4.04959 1.53096,6.02307 0.2639,0.81425 0.50199,1.63785 0.79734,2.44107 0.1416,0.38511 -0.26939,0.20475 -0.44397,0.0713 -0.71604,-0.5472 -1.34714,-1.19765 -1.99297,-1.82343 z"
       id="path1"
       transform="matrix(1.1631942,0,0,1.1631942,-71.93441,-57.868114)"
       inkscape:original-d="m 106.4209,254.45175 c -2.20449,-2.18014 -2.26596,-2.25217 -3.1454,-3.68596 l -0.57482,-0.93717 0.17045,-8.88789 c 0.19855,-10.35314 -0.1353,-16.09872 -1.25146,-21.53767 -0.20792,-1.01321 -0.42072,-2.07286 -0.47287,-2.35479 -0.0907,-0.49031 -0.20781,-0.50757 -2.694113,-0.39699 -3.921884,0.17442 -9.217876,-0.71928 -10.790729,-1.82095 -0.41787,-0.29269 0.493014,-0.3398 6.569879,-0.3398 6.966103,0 7.055013,-0.006 7.055013,-0.5074 0,-0.27907 0.10572,-0.70494 0.23493,-0.94637 0.4497,-0.84029 0.9932,-5.53042 0.9932,-8.57094 0,-4.30926 -0.81578,-10.4314 -1.85537,-13.92388 -0.20107,-0.67547 -0.53935,-1.83606 -0.751738,-2.57908 -0.212386,-0.74302 -0.596932,-1.82366 -0.854538,-2.40143 -0.257609,-0.57776 -0.468379,-1.16899 -0.468379,-1.31382 0,-0.14484 -0.175204,-0.63256 -0.389345,-1.08383 -0.280053,-0.59017 -0.607557,-0.86664 -1.166725,-0.98492 -2.317263,-0.49019 -6.047753,-2.86137 -7.880315,-5.0089 -0.281319,-0.32967 -0.905177,-1.04813 -1.386351,-1.59658 -0.822396,-0.93737 -5.021389,-6.69074 -6.371124,-8.72959 -1.01382,-1.53143 -3.899942,-4.58996 -5.13416,-5.44087 l -1.155806,-0.79685 0.01024,-1.61186 c 0.0066,-1.04461 -0.181477,-2.17372 -0.534532,-3.20843 -0.299622,-0.87811 -0.934268,-2.92295 -1.410322,-4.54409 -0.476054,-1.62113 -1.031457,-3.44491 -1.234231,-4.05284 -0.202771,-0.60792 -0.36813,-1.30108 -0.367461,-1.54034 0.0016,-0.56605 -0.940633,-4.01949 -1.355646,-4.96876 -0.177186,-0.40528 -0.573172,-1.51061 -0.879969,-2.45627 -0.520896,-1.60559 -0.564095,-2.22737 -0.652757,-9.39521 -0.06643,-5.37086 -0.01564,-7.67583 0.169188,-7.67583 0.177062,0 0.262758,1.23481 0.259964,3.7458 -0.0076,6.79412 0.931484,12.67757 3.067703,19.22028 0.617522,1.89133 1.281674,3.99143 1.475886,4.66691 2.440495,8.48799 5.704419,15.04396 10.272064,20.63263 1.839002,2.25008 4.986039,5.43652 6.492954,6.57425 0.743472,0.56133 1.655477,1.30133 2.026672,1.64445 0.993214,0.91809 4.166261,2.74858 4.455072,2.57009 0.478277,-0.29559 -0.559707,-8.51712 -1.997826,-15.82414 -0.25259,-1.2834 -0.687816,-3.5493 -0.967169,-5.03534 -0.279352,-1.48604 -0.66194,-3.42035 -0.850188,-4.29847 -1.450152,-6.76435 -2.747891,-16.26969 -2.951059,-21.61514 l -0.126032,-3.31595 0.447948,1.8422 c 1.167042,4.7995 1.798375,8.66174 3.593504,21.98357 1.037315,7.69804 2.439538,15.04069 2.988059,15.6468 0.67015,0.74051 1.403845,0.51843 3.003829,-0.9092 0.83271,-0.74302 1.67565,-1.35095 1.87318,-1.35095 0.19754,0 0.35916,-0.11053 0.35916,-0.24563 0,-0.34205 0.82208,-0.3078 1.17901,0.0491 0.84518,0.84519 -0.0966,1.7126 -2.18976,2.01688 -0.62346,0.0906 -1.325268,0.30497 -1.559581,0.4763 -0.484743,0.35445 -0.842031,1.91032 -0.857747,3.7352 -0.01045,1.21306 0.818668,6.2942 1.101812,6.75233 0.07838,0.12683 0.291976,0.75638 0.474636,1.39902 0.18268,0.64264 0.50287,1.61056 0.71156,2.15094 0.20868,0.54038 0.61301,1.59043 0.8985,2.33345 1.56418,4.07082 2.48268,7.75888 2.96687,11.91289 0.21911,1.87975 0.35932,9.01744 0.46079,23.45734 0.1274,18.13101 0.20039,21.09708 0.57725,23.45733 0.65295,4.08947 1.11563,6.16573 1.91575,8.59693 0.40014,1.21585 0.79111,2.40407 0.86883,2.64049 0.27314,0.83095 -0.35216,0.41056 -2.39638,-1.61108 z"
       inkscape:path-effect="#path-effect13" /></g></svg>
