<?xml version="1.0" encoding="UTF-8" standalone="no"?>
<!-- Created with Inkscape (http://www.inkscape.org/) -->

<svg
   width="210mm"
   height="297mm"
   viewBox="0 0 210 297"
   version="1.1"
   id="svg1"
   xml:space="preserve"
   inkscape:version="1.4 (86a8ad7, 2024-10-11)"
   sodipodi:docname="branch-logo-1.svg"
   inkscape:export-filename="branch-logo-1.png"
   inkscape:export-xdpi="96"
   inkscape:export-ydpi="96"
   xmlns:inkscape="http://www.inkscape.org/namespaces/inkscape"
   xmlns:sodipodi="http://sodipodi.sourceforge.net/DTD/sodipodi-0.dtd"
   xmlns="http://www.w3.org/2000/svg"
   xmlns:svg="http://www.w3.org/2000/svg"><sodipodi:namedview
     id="namedview1"
     pagecolor="#ffffff"
     bordercolor="#000000"
     borderopacity="0.25"
     inkscape:showpageshadow="2"
     inkscape:pageopacity="0.0"
     inkscape:pagecheckerboard="0"
     inkscape:deskcolor="#d1d1d1"
     inkscape:document-units="mm"
     showgrid="false"
     inkscape:zoom="1.5233586"
     inkscape:cx="305.24658"
     inkscape:cy="720.44758"
     inkscape:window-width="1920"
     inkscape:window-height="1057"
     inkscape:window-x="-8"
     inkscape:window-y="-8"
     inkscape:window-maximized="1"
     inkscape:current-layer="layer1" /><defs
     id="defs1"><inkscape:path-effect
       effect="simplify"
       id="path-effect14"
       is_visible="true"
       lpeversion="1.3"
       threshold="24.504195"
       steps="1"
       smooth_angles="360"
       helper_size="10"
       simplify_individual_paths="false"
       simplify_just_coalesce="false" /><inkscape:path-effect
       effect="simplify"
       id="path-effect13"
       is_visible="true"
       lpeversion="1.3"
       threshold="5"
       steps="1"
       smooth_angles="360"
       helper_size="30"
       simplify_individual_paths="false"
       simplify_just_coalesce="false" /><inkscape:path-effect
       effect="simplify"
       id="path-effect12"
       is_visible="true"
       lpeversion="1.3"
       threshold="5"
       steps="1"
       smooth_angles="0"
       helper_size="10"
       simplify_individual_paths="false"
       simplify_just_coalesce="false" /><rect
       x="444.68079"
       y="536.58768"
       width="51.987733"
       height="76.124895"
       id="rect5" /><rect
       x="474.38807"
       y="497.59688"
       width="57.557848"
       height="473.45971"
       id="rect3" /><inkscape:path-effect
       effect="simplify"
       id="path-effect3"
       is_visible="true"
       lpeversion="1.3"
       threshold="1.6876846"
       steps="15.14094"
       smooth_angles="360"
       helper_size="6.2416107"
       simplify_individual_paths="false"
       simplify_just_coalesce="false" /><inkscape:path-effect
       effect="simplify"
       id="path-effect1"
       is_visible="true"
       lpeversion="1.3"
       threshold="5"
       steps="1"
       smooth_angles="360"
       helper_size="10"
       simplify_individual_paths="false"
       simplify_just_coalesce="false" /><rect
       x="346.60257"
       y="471.32698"
       width="395.17944"
       height="210.06216"
       id="rect1" /></defs><g
     inkscape:label="Layer 1"
     inkscape:groupmode="layer"
     id="layer1"><path
       style="fill:#ff0000;fill-opacity:1;stroke:#ff0000;stroke-width:0;stroke-opacity:1"
       d=""
       id="path2"
       transform="scale(0.26458333)" /><g
       id="g14"><path
         style="fill:#ff0000;fill-opacity:1;stroke:#ff0000;stroke-width:0;stroke-opacity:1"
         d="m 106.4209,254.45175 c -0.83008,-0.84644 -1.75572,-1.61793 -2.4393,-2.59184 -0.46012,-0.65553 -1.2954,-1.23099 -1.28092,-2.03129 0.0718,-3.96809 0.18771,-7.93563 0.21421,-11.90429 0.0355,-5.31819 -0.0296,-10.66309 -0.82836,-15.9329 -0.25791,-1.70147 -0.47898,-3.41985 -0.96787,-5.06887 -0.10645,-0.35909 -0.54979,-0.32637 -0.84667,-0.32598 -1.246627,0.002 -2.491201,0.10935 -3.738884,0.0615 -2.228766,-0.0855 -4.47184,-0.31183 -6.619281,-0.92408 -0.790918,-0.2255 -1.882251,-0.20508 -2.287032,-0.93041 -0.140611,-0.25196 0.414101,-0.22413 0.571036,-0.23303 1.692223,-0.0959 3.388533,-0.0707 5.082745,-0.0796 2.255138,-0.0119 4.52068,0.17052 6.765686,-0.0473 0.38626,-0.0375 0.95601,0.14747 1.15677,-0.19756 0.16951,-0.29132 0.072,-0.68064 0.22753,-0.99894 0.3482,-0.71255 0.46024,-1.50912 0.5726,-2.28524 0.31138,-2.15074 0.52368,-4.3225 0.51182,-6.49618 -0.0169,-3.09382 -0.33106,-6.1818 -0.83003,-9.23299 -0.30036,-1.83667 -0.71953,-3.65227 -1.24601,-5.43872 -0.43626,-1.4803 -0.868468,-2.96293 -1.456688,-4.39515 -0.175455,-0.42721 -0.280817,-0.87719 -0.428019,-1.31834 -0.174947,-0.52431 -0.360025,-1.07392 -0.735782,-1.49122 -0.378537,-0.42038 -0.975023,-0.42658 -1.475831,-0.59627 -1.662362,-0.56324 -3.191305,-1.465 -4.604165,-2.49505 -1.083859,-0.7902 -2.057284,-1.72024 -2.939167,-2.73404 -0.675991,-0.7771 -1.352709,-1.55318 -1.972958,-2.37712 -1.761601,-2.34011 -3.560928,-4.65892 -5.15029,-7.1194 -0.942591,-1.45922 -2.113008,-2.75629 -3.333304,-3.98493 -0.777265,-0.78257 -1.588876,-1.53707 -2.50093,-2.16587 -0.246892,-0.17022 -0.738978,-0.21077 -0.740677,-0.51065 -0.0062,-1.09109 0.0443,-2.18611 -0.130755,-3.27061 -0.179929,-1.1147 -0.601422,-2.16663 -0.937832,-3.23897 -0.762787,-2.43147 -1.498501,-4.87094 -2.22661,-7.31318 -0.132833,-0.44555 -0.178688,-0.908 -0.264333,-1.36569 -0.241784,-1.2921 -0.605752,-2.55896 -0.999783,-3.81186 -0.249665,-0.79387 -0.588477,-1.55452 -0.861581,-2.34078 -0.351646,-1.01238 -0.703027,-2.03741 -0.794508,-3.11366 -0.160731,-1.89097 -0.168819,-3.79076 -0.188086,-5.68708 -0.02765,-2.72166 -0.205728,-5.45045 -0.01016,-8.16591 0.02688,-0.37317 -0.246087,-1.18436 0.125065,-1.11869 0.22669,0.0401 0.202108,0.51173 0.217772,0.73725 0.134043,1.92985 0.05662,3.86534 0.128934,5.79796 0.175029,4.67772 0.936374,9.32865 2.225663,13.82802 0.641839,2.23989 1.446909,4.42964 2.092086,6.66829 0.796892,2.76508 1.698644,5.50198 2.786586,8.16773 2.227983,5.45914 5.306285,10.60666 9.317506,14.94473 1.399103,1.51311 2.795399,3.04873 4.410144,4.33187 0.875348,0.69559 1.729405,1.41637 2.603159,2.11609 0.984336,0.78827 2.046092,1.49351 3.186975,2.02583 0.348203,0.16247 0.806814,0.69919 1.079208,0.42038 0.228145,-0.23353 0.162095,-0.64514 0.151841,-0.95487 -0.06191,-1.86997 -0.307897,-3.72838 -0.560282,-5.58023 -0.497913,-3.65341 -1.165151,-7.28065 -1.865491,-10.90019 -0.572202,-2.95729 -1.151082,-5.91295 -1.742274,-8.86684 -1.007506,-5.034 -1.768819,-10.11699 -2.31314,-15.22161 -0.22545,-2.11424 -0.362615,-4.23656 -0.443373,-6.36132 -0.02806,-0.73831 -0.260201,-2.93249 -0.08418,-2.21492 0.559893,2.2825 1.108645,4.56877 1.530587,6.88174 0.863485,4.73338 1.515705,9.50224 2.148875,14.27064 0.670025,5.04597 1.303497,10.10949 2.425129,15.07685 0.229002,1.01418 0.398162,2.05455 0.796978,3.01779 0.198268,0.47887 0.781231,0.76105 1.281169,0.584 0.765316,-0.27103 1.358744,-0.85683 1.967702,-1.3712 0.52244,-0.44128 0.96567,-1.23169 1.65303,-1.21983 0.28863,0.005 0.30869,-0.30207 0.54043,-0.42627 0.33822,-0.18127 0.78437,-0.0642 1.066,0.16966 0.28141,0.23365 0.46839,0.66591 0.24511,0.99825 -0.34564,0.51447 -0.97356,0.73067 -1.54616,0.88033 -0.78701,0.20571 -1.69631,0.12352 -2.364222,0.61452 -0.386578,0.28419 -0.522415,0.78395 -0.62488,1.22695 -0.221752,0.95874 -0.352294,1.95376 -0.267118,2.93389 0.149456,1.71981 0.386609,3.43569 0.76038,5.1201 0.106687,0.4808 0.237599,0.95393 0.40795,1.42091 0.35542,0.97436 0.59027,1.98828 0.9543,2.96011 0.77068,2.05745 1.60014,4.09468 2.24854,6.19629 0.89715,2.90789 1.60709,5.897 1.81224,8.93337 0.16795,2.48576 0.20264,4.97836 0.24679,7.46862 0.1891,10.66557 0.0539,21.33593 0.33841,31.99932 0.0564,2.1148 0.008,4.24479 0.31713,6.34037 0.28319,1.92274 0.62228,3.83823 1.03527,5.73776 0.3927,1.80614 1.06253,3.53458 1.56965,5.30914 0.10667,0.37327 0.52486,0.78118 0.33056,1.1182 -0.16429,0.28496 -0.56231,-0.15109 -0.72804,-0.29033 -0.60441,-0.5078 -1.1654,-1.065 -1.72859,-1.61724 z"
         id="path1"
         inkscape:original-d="m 106.4209,254.45175 c -2.20449,-2.18014 -2.26596,-2.25217 -3.1454,-3.68596 l -0.57482,-0.93717 0.17045,-8.88789 c 0.19855,-10.35314 -0.1353,-16.09872 -1.25146,-21.53767 -0.20792,-1.01321 -0.42072,-2.07286 -0.47287,-2.35479 -0.0907,-0.49031 -0.20781,-0.50757 -2.694113,-0.39699 -3.921884,0.17442 -9.217876,-0.71928 -10.790729,-1.82095 -0.41787,-0.29269 0.493014,-0.3398 6.569879,-0.3398 6.966103,0 7.055013,-0.006 7.055013,-0.5074 0,-0.27907 0.10572,-0.70494 0.23493,-0.94637 0.4497,-0.84029 0.9932,-5.53042 0.9932,-8.57094 0,-4.30926 -0.81578,-10.4314 -1.85537,-13.92388 -0.20107,-0.67547 -0.53935,-1.83606 -0.751738,-2.57908 -0.212386,-0.74302 -0.596932,-1.82366 -0.854538,-2.40143 -0.257609,-0.57776 -0.468379,-1.16899 -0.468379,-1.31382 0,-0.14484 -0.175204,-0.63256 -0.389345,-1.08383 -0.280053,-0.59017 -0.607557,-0.86664 -1.166725,-0.98492 -2.317263,-0.49019 -6.047753,-2.86137 -7.880315,-5.0089 -0.281319,-0.32967 -0.905177,-1.04813 -1.386351,-1.59658 -0.822396,-0.93737 -5.021389,-6.69074 -6.371124,-8.72959 -1.01382,-1.53143 -3.899942,-4.58996 -5.13416,-5.44087 l -1.155806,-0.79685 0.01024,-1.61186 c 0.0066,-1.04461 -0.181477,-2.17372 -0.534532,-3.20843 -0.299622,-0.87811 -0.934268,-2.92295 -1.410322,-4.54409 -0.476054,-1.62113 -1.031457,-3.44491 -1.234231,-4.05284 -0.202771,-0.60792 -0.36813,-1.30108 -0.367461,-1.54034 0.0016,-0.56605 -0.940633,-4.01949 -1.355646,-4.96876 -0.177186,-0.40528 -0.573172,-1.51061 -0.879969,-2.45627 -0.520896,-1.60559 -0.564095,-2.22737 -0.652757,-9.39521 -0.06643,-5.37086 -0.01564,-7.67583 0.169188,-7.67583 0.177062,0 0.262758,1.23481 0.259964,3.7458 -0.0076,6.79412 0.931484,12.67757 3.067703,19.22028 0.617522,1.89133 1.281674,3.99143 1.475886,4.66691 2.440495,8.48799 5.704419,15.04396 10.272064,20.63263 1.839002,2.25008 4.986039,5.43652 6.492954,6.57425 0.743472,0.56133 1.655477,1.30133 2.026672,1.64445 0.993214,0.91809 4.166261,2.74858 4.455072,2.57009 0.478277,-0.29559 -0.559707,-8.51712 -1.997826,-15.82414 -0.25259,-1.2834 -0.687816,-3.5493 -0.967169,-5.03534 -0.279352,-1.48604 -0.66194,-3.42035 -0.850188,-4.29847 -1.450152,-6.76435 -2.747891,-16.26969 -2.951059,-21.61514 l -0.126032,-3.31595 0.447948,1.8422 c 1.167042,4.7995 1.798375,8.66174 3.593504,21.98357 1.037315,7.69804 2.439538,15.04069 2.988059,15.6468 0.67015,0.74051 1.403845,0.51843 3.003829,-0.9092 0.83271,-0.74302 1.67565,-1.35095 1.87318,-1.35095 0.19754,0 0.35916,-0.11053 0.35916,-0.24563 0,-0.34205 0.82208,-0.3078 1.17901,0.0491 0.84518,0.84519 -0.0966,1.7126 -2.18976,2.01688 -0.62346,0.0906 -1.325268,0.30497 -1.559581,0.4763 -0.484743,0.35445 -0.842031,1.91032 -0.857747,3.7352 -0.01045,1.21306 0.818668,6.2942 1.101812,6.75233 0.07838,0.12683 0.291976,0.75638 0.474636,1.39902 0.18268,0.64264 0.50287,1.61056 0.71156,2.15094 0.20868,0.54038 0.61301,1.59043 0.8985,2.33345 1.56418,4.07082 2.48268,7.75888 2.96687,11.91289 0.21911,1.87975 0.35932,9.01744 0.46079,23.45734 0.1274,18.13101 0.20039,21.09708 0.57725,23.45733 0.65295,4.08947 1.11563,6.16573 1.91575,8.59693 0.40014,1.21585 0.79111,2.40407 0.86883,2.64049 0.27314,0.83095 -0.35216,0.41056 -2.39638,-1.61108 z"
         inkscape:path-effect="#path-effect13"
         transform="translate(-0.34736842,0.34736842)" /><path
         style="fill:#ff0000;fill-opacity:1;stroke:#ff0000;stroke-width:0;stroke-opacity:1"
         d="m 97.256397,215.68168 c -2.886249,-1.59101 -7.564933,-6.31142 -9.313472,-9.39653 -0.322758,-0.56947 -0.745273,-1.21136 -0.938923,-1.42641 -0.193649,-0.21507 -0.543739,-0.75461 -0.777978,-1.199 -0.234239,-0.44439 -1.01906,-1.88708 -1.744045,-3.20597 -0.724984,-1.3189 -1.99759,-3.80081 -2.828011,-5.51537 -3.845373,-7.93948 -6.363807,-12.83387 -7.237345,-14.06525 -0.248348,-0.35009 -0.451542,-0.69935 -0.451542,-0.77614 0,-0.0768 -0.593501,-0.99637 -1.318894,-2.0435 -0.725392,-1.04713 -1.318893,-1.98872 -1.318893,-2.09243 0,-0.10371 0.512571,0.31435 1.139046,0.92901 1.107374,1.08649 2.874994,2.08575 3.708441,2.09643 0.517673,0.007 0.805942,0.54994 1.020643,1.92365 0.315955,2.02155 1.557155,6.41241 2.609759,9.23226 1.093955,2.93062 5.583587,10.58438 7.095718,12.09652 0.214521,0.21452 0.709925,0.81785 1.100897,1.34072 0.390972,0.52287 1.123274,1.39883 1.627342,1.94656 0.504065,0.54774 1.180703,1.35706 1.503637,1.7985 0.322933,0.44143 0.719848,0.91051 0.882031,1.04239 0.162182,0.1319 1.104198,1.15244 2.093369,2.26787 0.989169,1.11543 1.960355,2.19742 2.158189,2.40441 0.197834,0.20699 0.786533,0.93999 1.30822,1.62887 0.521685,0.68889 1.034254,1.25252 1.139043,1.25252 0.104788,0 0.190524,0.1079 0.190524,0.2398 0,0.36484 -0.247707,0.29284 -1.647756,-0.47891 z"
         id="path3" /><text
         xml:space="preserve"
         style="font-weight:600;font-size:14.1111px;line-height:1.2;font-family:Sora;-inkscape-font-specification:'Sora Semi-Bold';text-align:start;writing-mode:lr-tb;direction:ltr;text-anchor:start;fill:#ff0000;fill-opacity:1;stroke:#ff0000;stroke-width:0;stroke-opacity:1"
         x="80.804794"
         y="154.93375"
         id="text4"><tspan
           sodipodi:role="line"
           id="tspan4"
           style="font-size:14.1111px;fill:#ff0000;stroke-width:0;fill-opacity:1"
           x="80.804794"
           y="154.93375">B</tspan></text><text
         xml:space="preserve"
         style="font-weight:600;font-size:14.1111px;line-height:1.2;font-family:Sora;-inkscape-font-specification:'Sora Semi-Bold';text-align:start;writing-mode:lr-tb;direction:ltr;text-anchor:start;fill:#ff0000;fill-opacity:1;stroke:#ff0000;stroke-width:0;stroke-opacity:1"
         x="97.747902"
         y="163.59241"
         id="text6"><tspan
           sodipodi:role="line"
           id="tspan6"
           style="font-size:14.1111px;fill:#ff0000;stroke-width:0;fill-opacity:1"
           x="97.747902"
           y="163.59241">R</tspan></text><text
         xml:space="preserve"
         style="font-weight:600;font-size:14.1111px;line-height:1.2;font-family:Sora;-inkscape-font-specification:'Sora Semi-Bold';text-align:start;writing-mode:lr-tb;direction:ltr;text-anchor:start;fill:#ff0000;fill-opacity:1;stroke:#ff0000;stroke-width:0;stroke-opacity:1"
         x="107.36861"
         y="180.71643"
         id="text7"><tspan
           sodipodi:role="line"
           id="tspan7"
           style="font-size:14.1111px;fill:#ff0000;stroke-width:0;fill-opacity:1"
           x="107.36861"
           y="180.71643">A</tspan></text><text
         xml:space="preserve"
         style="font-weight:600;font-size:14.1111px;line-height:1.2;font-family:Sora;-inkscape-font-specification:'Sora Semi-Bold';text-align:start;writing-mode:lr-tb;direction:ltr;text-anchor:start;fill:#ff0000;fill-opacity:1;stroke:#ff0000;stroke-width:0;stroke-opacity:1"
         x="110.75291"
         y="200.77354"
         id="text10"><tspan
           sodipodi:role="line"
           id="tspan10"
           style="fill:#ff0000;stroke-width:0;fill-opacity:1"
           x="110.75291"
           y="200.77354">N</tspan></text><text
         xml:space="preserve"
         style="font-weight:600;font-size:14.1111px;line-height:1.2;font-family:Sora;-inkscape-font-specification:'Sora Semi-Bold';text-align:start;writing-mode:lr-tb;direction:ltr;text-anchor:start;fill:#ff0000;fill-opacity:1;stroke:#ff0000;stroke-width:0;stroke-opacity:1"
         x="111.38802"
         y="221.52028"
         id="text11"><tspan
           sodipodi:role="line"
           id="tspan11"
           style="fill:#ff0000;stroke-width:0;fill-opacity:1"
           x="111.38802"
           y="221.52028">C</tspan></text><text
         xml:space="preserve"
         style="font-weight:600;font-size:14.1111px;line-height:1.2;font-family:Sora;-inkscape-font-specification:'Sora Semi-Bold';text-align:start;writing-mode:lr-tb;direction:ltr;text-anchor:start;fill:#ff0000;fill-opacity:1;stroke:#ff0000;stroke-width:0;stroke-opacity:1"
         x="111.11261"
         y="241.63695"
         id="text12"><tspan
           sodipodi:role="line"
           id="tspan12"
           style="fill:#ff0000;stroke-width:0;fill-opacity:1"
           x="111.11261"
           y="241.63695">H</tspan></text></g></g></svg>
